<svg width="18" height="18" viewBox="0 0 18 18" fill="none" xmlns="http://www.w3.org/2000/svg">
<path d="M10.6674 13.0017V13.7513C10.6674 14.1342 10.4066 14.4676 10.0358 14.5603L8.36842 14.9772C7.8422 15.1086 7.33265 14.7104 7.33265 14.1682V10.0004L3.85987 6.52765C3.73449 6.40293 3.66446 6.23286 3.66446 6.05612V4.3314C3.66446 3.96325 3.96325 3.66446 4.3314 3.66446H13.6686C14.0368 3.66446 14.3356 3.96325 14.3356 4.3314V4.99835" stroke="#333333" stroke-width="1.5" stroke-linecap="round" stroke-linejoin="round"/>
<path fill-rule="evenodd" clip-rule="evenodd" d="M12.4101 11.1789L15.2566 8.33306C15.4634 8.1263 15.4634 7.79083 15.2566 7.58474L14.4169 6.74506C14.2102 6.53831 13.8747 6.53831 13.6686 6.74506L10.8228 9.59091C10.7234 9.69029 10.6674 9.82501 10.6674 9.96507V11.3343H12.0359C12.1767 11.3343 12.3107 11.2789 12.4101 11.1789Z" stroke="#333333" stroke-width="1.5" stroke-linecap="round" stroke-linejoin="round"/>
</svg>
